<?xml version="1.0" standalone="no"?>
<!DOCTYPE svg PUBLIC "-//W3C//DTD SVG 20010904//EN"
 "http://www.w3.org/TR/2001/REC-SVG-20010904/DTD/svg10.dtd">
<svg version="1.0" xmlns="http://www.w3.org/2000/svg"
 width="549.000000pt" height="546.000000pt" viewBox="0 0 549.000000 546.000000"
 preserveAspectRatio="xMidYMid meet">

<g transform="translate(0.000000,546.000000) scale(0.100000,-0.100000)"
fill="#000000" stroke="none">
<path d="M2580 5224 c-19 -2 -78 -9 -130 -14 -282 -31 -586 -125 -850 -262
-602 -313 -1065 -875 -1249 -1518 -71 -248 -95 -427 -95 -700 0 -217 8 -311
45 -495 165 -823 747 -1520 1529 -1829 304 -120 577 -170 920 -170 217 0 311
8 495 45 648 130 1219 515 1590 1074 211 316 339 663 397 1070 21 149 16 503
-10 670 -85 549 -320 1013 -707 1401 -395 395 -896 642 -1455 714 -89 12 -419
21 -480 14z m512 -716 c70 -32 133 -96 167 -168 24 -51 26 -67 29 -213 2 -87
1 -170 -2 -183 -8 -30 -73 -63 -123 -64 -43 0 -111 28 -123 51 -6 10 -10 79
-10 154 l0 137 -29 29 -29 29 -217 0 c-219 0 -245 -4 -272 -39 -8 -11 -12 -61
-13 -154 0 -76 -4 -146 -10 -156 -12 -23 -80 -51 -123 -51 -49 1 -115 34 -122
63 -4 13 -5 96 -3 183 3 157 3 160 36 227 38 77 93 127 179 163 57 24 62 24
333 22 274 -3 275 -3 332 -30z m-1022 -141 c-7 -17 -17 -68 -24 -111 -11 -71
-14 -80 -36 -87 -280 -81 -432 -164 -479 -261 -26 -55 -27 -88 -1 -137 71
-140 361 -258 780 -318 179 -25 701 -25 880 0 445 64 746 195 791 345 39 132
-118 262 -426 352 l-90 26 -8 59 c-5 33 -17 88 -27 122 l-17 62 31 -6 c17 -3
85 -21 151 -39 350 -95 557 -247 610 -449 20 -79 20 -262 -1 -340 -17 -69 -51
-131 -101 -186 l-34 -38 -94 -923 c-51 -508 -98 -952 -104 -986 -31 -203 -199
-343 -521 -435 -335 -97 -822 -100 -1173 -7 -274 72 -441 180 -515 330 l-32
65 -100 979 -100 979 -41 44 c-22 25 -55 74 -72 111 l-32 67 0 170 0 170 32
67 c66 139 206 248 430 334 94 36 327 94 331 83 2 -5 -2 -24 -8 -42z"/>
<path d="M1818 3113 c-8 -10 -18 -26 -21 -36 -4 -9 30 -362 74 -783 85 -818
86 -822 143 -859 39 -26 83 -34 122 -24 71 20 71 -11 -11 805 -41 401 -79 749
-85 772 -13 55 -51 106 -95 126 -45 22 -108 21 -127 -1z"/>
<path d="M3555 3111 c-40 -25 -71 -60 -85 -96 -11 -29 -160 -1443 -160 -1521
0 -64 36 -89 122 -85 32 1 83 42 105 84 14 27 95 751 164 1454 l13 133 -24 25
c-29 31 -91 34 -135 6z"/>
<path d="M2660 2972 l-30 -30 0 -781 c0 -583 3 -787 12 -806 16 -35 57 -55
112 -55 36 0 52 6 78 29 l33 29 3 790 2 790 -23 28 c-21 24 -33 28 -90 32 -63
4 -68 3 -97 -26z"/>
</g>
</svg>
