<?xml version="1.0" standalone="no"?>
<!DOCTYPE svg PUBLIC "-//W3C//DTD SVG 20010904//EN"
 "http://www.w3.org/TR/2001/REC-SVG-20010904/DTD/svg10.dtd">
<svg version="1.0" xmlns="http://www.w3.org/2000/svg"
 width="549.000000pt" height="546.000000pt" viewBox="0 0 549.000000 546.000000"
 preserveAspectRatio="xMidYMid meet">

<g transform="translate(0.000000,546.000000) scale(0.100000,-0.100000)"
fill="#000000" stroke="none">
<path d="M2523 5220 c-1105 -108 -2006 -917 -2222 -1995 -37 -184 -45 -278
-45 -495 0 -217 8 -311 45 -495 196 -980 974 -1758 1954 -1954 184 -37 278
-45 495 -45 217 0 311 8 495 45 736 147 1375 629 1723 1299 373 717 373 1583
0 2300 -340 656 -957 1130 -1678 1290 -220 49 -555 70 -767 50z m1380 -1214
c59 -40 57 -4 57 -858 -1 -841 -2 -865 -53 -998 -81 -213 -203 -385 -397 -558
-116 -104 -257 -211 -382 -288 -126 -79 -352 -194 -380 -194 -50 0 -396 194
-548 308 -317 235 -509 463 -605 717 -55 144 -55 151 -55 1015 l0 798 26 31
c14 17 40 35 57 40 19 6 485 9 1142 8 1072 -2 1111 -3 1138 -21z"/>
<path d="M2750 2585 l0 -1075 58 31 c106 59 306 196 403 277 194 163 309 316
361 482 l23 75 0 640 0 640 -422 3 -423 2 0 -1075z"/>
</g>
</svg>
