<?xml version="1.0" standalone="no"?>
<!DOCTYPE svg PUBLIC "-//W3C//DTD SVG 20010904//EN"
 "http://www.w3.org/TR/2001/REC-SVG-20010904/DTD/svg10.dtd">
<svg version="1.0" xmlns="http://www.w3.org/2000/svg"
 width="549.000000pt" height="546.000000pt" viewBox="0 0 549.000000 546.000000"
 preserveAspectRatio="xMidYMid meet">

<g transform="translate(0.000000,546.000000) scale(0.100000,-0.100000)"
fill="#000000" stroke="none">
<path d="M2522 5219 c-840 -75 -1599 -586 -1990 -1339 -536 -1031 -283 -2312
603 -3057 1083 -910 2693 -751 3571 353 612 769 715 1832 262 2704 -467 900
-1433 1429 -2446 1339z m1398 -968 c7 -13 10 -506 10 -1525 0 -1354 -2 -1506
-16 -1520 -14 -14 -134 -16 -1169 -16 -1035 0 -1155 2 -1169 16 -14 14 -16
138 -16 1212 l0 1197 386 -3 c336 -2 390 -1 410 13 l24 15 0 315 0 315 765 0
c745 0 765 0 775 -19z m-1642 -396 l-3 -136 -338 -2 c-185 -1 -337 0 -337 2 0
2 6 9 14 15 55 44 314 245 340 263 17 13 96 73 176 136 l145 113 3 -128 c1
-70 1 -188 0 -263z"/>
<path d="M2312 3198 c-7 -7 -12 -25 -12 -40 0 -21 6 -31 26 -38 15 -6 233 -10
550 -10 511 0 525 1 544 20 24 24 24 29 4 58 l-15 22 -543 0 c-408 0 -545 -3
-554 -12z"/>
<path d="M2067 2842 c-21 -23 -22 -46 -1 -66 14 -14 89 -16 677 -16 364 0 667
4 673 8 24 15 26 50 5 71 -21 21 -29 21 -679 21 -626 0 -660 -1 -675 -18z"/>
<path d="M2072 2494 c-24 -17 -29 -53 -10 -72 9 -9 174 -12 679 -12 600 0 669
2 684 16 18 18 12 52 -13 72 -12 9 -161 12 -667 12 -573 0 -653 -2 -673 -16z"/>
<path d="M2066 2134 c-22 -22 -20 -50 6 -68 20 -14 101 -16 675 -16 640 0 653
0 673 20 24 24 24 29 4 58 l-15 22 -664 0 c-590 0 -665 -2 -679 -16z"/>
<path d="M2067 1782 c-22 -24 -21 -45 1 -65 17 -15 70 -17 554 -17 505 0 536
1 551 18 22 24 21 45 -1 65 -17 15 -70 17 -554 17 -505 0 -536 -1 -551 -18z"/>
</g>
</svg>
