<svg id="svg" version="1.1" xmlns="http://www.w3.org/2000/svg" xmlns:xlink="http://www.w3.org/1999/xlink" width="400" height="397.8142076502732" viewBox="0, 0, 400,397.8142076502732"><g id="svgg"><path id="path0" d="M93.872 124.060 C 91.121 124.488,91.357 118.492,91.224 191.385 C 91.159 227.427,91.214 257.836,91.347 258.960 C 91.810 262.883,86.467 262.461,138.511 262.687 L 184.349 262.886 185.097 263.809 C 186.514 265.559,186.588 268.679,185.245 270.022 C 184.690 270.576,181.825 270.647,159.827 270.647 C 130.342 270.647,132.916 270.300,124.121 275.452 C 115.389 280.566,114.431 281.436,115.900 282.905 C 116.596 283.601,284.200 283.601,284.896 282.905 C 286.379 281.422,285.248 280.398,276.449 275.260 C 268.040 270.350,270.377 270.652,240.758 270.649 C 216.334 270.647,216.240 270.644,215.485 269.808 C 214.357 268.561,214.458 264.967,215.654 263.771 L 216.539 262.886 261.934 262.687 C 313.473 262.461,308.190 262.882,308.653 258.960 C 308.786 257.836,308.841 227.413,308.776 191.354 L 308.657 125.793 307.750 124.887 L 306.844 123.980 200.884 123.938 C 142.607 123.915,94.451 123.970,93.872 124.060 M196.006 173.558 C 196.618 174.170,195.733 175.244,194.313 175.612 C 191.829 176.256,191.845 176.144,191.801 192.825 C 191.759 208.714,191.670 209.857,190.457 210.091 C 188.740 210.422,188.657 209.653,188.657 193.445 C 188.657 176.152,188.775 176.853,185.625 175.502 C 183.851 174.742,183.660 174.496,184.192 173.659 C 184.774 172.743,195.102 172.655,196.006 173.558 M203.708 174.924 C 203.957 175.471,204.537 178.292,204.997 181.193 C 207.370 196.175,207.636 197.318,208.832 197.707 C 209.835 198.034,213.731 180.268,213.731 175.367 C 213.731 175.038,214.970 173.930,215.338 173.930 C 216.734 173.930,216.597 175.297,213.532 192.040 C 212.770 196.199,211.879 201.543,211.551 203.916 C 210.276 213.140,207.493 213.232,206.152 204.095 C 205.758 201.405,204.525 194.204,203.414 188.094 C 201.436 177.223,201.122 174.732,201.658 174.196 C 202.240 173.614,203.280 173.984,203.708 174.924 " stroke="none" fill="#fbfbfb" fill-rule="evenodd"></path><path id="path1" d="M185.672 13.150 C 184.358 13.313,182.200 13.465,180.876 13.489 C 179.551 13.513,178.298 13.697,178.090 13.898 C 177.882 14.099,176.547 14.340,175.124 14.433 C 171.584 14.665,165.921 15.527,165.080 15.961 C 164.700 16.158,164.009 16.318,163.545 16.318 C 162.538 16.318,157.349 17.459,156.219 17.928 C 155.781 18.110,154.796 18.345,154.030 18.450 C 152.606 18.645,149.686 19.378,148.259 19.899 C 147.821 20.059,146.478 20.498,145.274 20.875 C 144.070 21.252,142.726 21.703,142.289 21.878 C 141.851 22.053,140.418 22.522,139.104 22.921 C 137.791 23.320,136.546 23.788,136.338 23.962 C 136.130 24.136,135.637 24.279,135.242 24.279 C 134.847 24.279,133.595 24.726,132.461 25.274 C 131.326 25.821,130.192 26.269,129.939 26.269 C 129.686 26.269,128.033 26.985,126.265 27.861 C 124.497 28.736,122.764 29.453,122.413 29.453 C 122.062 29.453,121.066 29.900,120.199 30.448 C 119.332 30.995,118.437 31.443,118.209 31.443 C 117.981 31.443,117.086 31.891,116.219 32.438 C 115.352 32.985,114.458 33.433,114.232 33.433 C 114.007 33.433,112.436 34.294,110.742 35.347 C 109.048 36.399,106.846 37.638,105.848 38.099 C 104.851 38.559,103.799 39.221,103.511 39.568 C 103.223 39.915,102.850 40.199,102.683 40.199 C 102.516 40.199,101.306 40.915,99.995 41.791 C 98.684 42.667,97.432 43.383,97.212 43.383 C 96.993 43.383,96.568 43.681,96.268 44.046 C 95.967 44.411,94.738 45.339,93.537 46.109 C 92.336 46.879,91.171 47.657,90.950 47.838 C 88.792 49.599,86.388 51.345,86.112 51.351 C 85.925 51.355,84.828 52.251,83.676 53.341 C 82.523 54.431,81.473 55.323,81.343 55.323 C 81.213 55.323,79.659 56.685,77.889 58.350 C 76.120 60.014,74.214 61.656,73.655 61.999 C 72.373 62.785,65.274 69.715,65.274 70.181 C 65.274 70.371,63.483 72.453,61.294 74.807 C 59.104 77.161,57.313 79.189,57.313 79.313 C 57.313 79.438,56.419 80.494,55.327 81.660 C 54.234 82.827,53.338 83.949,53.337 84.153 C 53.335 84.358,52.617 85.376,51.741 86.414 C 50.866 87.452,50.149 88.416,50.149 88.556 C 50.149 88.695,49.524 89.469,48.760 90.275 C 47.995 91.082,47.369 91.951,47.367 92.208 C 47.365 92.465,46.915 93.207,46.368 93.858 C 45.821 94.508,45.373 95.207,45.373 95.411 C 45.373 95.615,44.925 96.202,44.378 96.716 C 43.831 97.231,43.383 97.875,43.383 98.148 C 43.383 98.422,42.974 99.152,42.475 99.770 C 41.976 100.389,41.216 101.612,40.788 102.488 C 40.359 103.363,39.699 104.443,39.320 104.888 C 38.455 105.904,29.465 123.792,29.458 124.511 C 29.455 124.802,28.736 126.488,27.861 128.255 C 26.985 130.023,26.269 131.789,26.269 132.179 C 26.269 132.569,26.110 132.986,25.917 133.106 C 25.723 133.226,25.475 133.818,25.365 134.423 C 25.186 135.412,24.743 136.784,23.855 139.104 C 23.687 139.542,23.245 140.886,22.871 142.090 C 22.498 143.294,22.035 144.590,21.842 144.970 C 21.650 145.350,21.493 146.001,21.493 146.417 C 21.493 147.166,20.514 150.708,19.884 152.239 C 19.704 152.677,19.460 153.572,19.341 154.229 C 18.897 156.679,18.043 160.617,17.830 161.194 C 17.380 162.411,16.318 169.079,16.318 170.687 C 16.318 171.601,16.154 172.660,15.954 173.040 C 14.102 176.555,14.065 221.230,15.911 225.473 C 16.101 225.910,16.367 227.254,16.502 228.458 C 16.991 232.826,17.718 237.159,18.010 237.449 C 18.174 237.611,18.308 238.421,18.308 239.247 C 18.308 240.073,18.482 240.857,18.695 240.988 C 18.907 241.119,19.200 242.119,19.344 243.209 C 19.489 244.300,19.763 245.288,19.953 245.406 C 20.143 245.523,20.299 246.215,20.299 246.943 C 20.299 247.671,20.566 248.780,20.893 249.407 C 21.220 250.034,21.489 251.094,21.490 251.761 C 21.491 252.429,21.649 253.145,21.839 253.353 C 22.030 253.561,22.493 254.806,22.867 256.119 C 23.242 257.433,23.713 258.818,23.914 259.199 C 24.114 259.579,24.281 260.206,24.283 260.592 C 24.286 260.978,24.734 262.073,25.278 263.026 C 25.823 263.978,26.269 265.177,26.269 265.689 C 26.269 266.201,26.434 266.722,26.636 266.847 C 26.838 266.972,27.127 267.639,27.279 268.329 C 27.431 269.019,28.160 270.764,28.900 272.205 C 29.640 273.647,30.246 275.095,30.247 275.423 C 30.250 276.262,35.900 287.397,37.165 289.054 C 37.739 289.807,38.209 290.698,38.209 291.034 C 38.209 291.369,38.478 291.867,38.806 292.139 C 39.134 292.412,39.403 292.788,39.403 292.976 C 39.403 293.164,40.030 294.298,40.796 295.496 C 41.562 296.693,42.189 297.830,42.189 298.021 C 42.189 298.212,42.637 298.789,43.184 299.303 C 43.731 299.818,44.179 300.534,44.179 300.896 C 44.179 301.257,44.627 301.973,45.174 302.488 C 45.721 303.002,46.169 303.629,46.169 303.881 C 46.169 304.133,46.617 304.760,47.164 305.274 C 47.711 305.788,48.159 306.424,48.159 306.688 C 48.159 306.952,49.637 309.006,51.443 311.252 C 53.249 313.499,54.927 315.680,55.172 316.099 C 55.418 316.518,56.627 317.937,57.859 319.252 C 59.091 320.567,60.100 321.777,60.100 321.942 C 60.100 322.361,77.867 340.052,78.494 340.258 C 78.775 340.351,80.047 341.427,81.320 342.651 C 82.593 343.874,83.847 344.942,84.106 345.024 C 84.365 345.105,85.415 345.867,86.440 346.715 C 87.464 347.564,88.416 348.259,88.556 348.259 C 88.695 348.259,89.469 348.884,90.275 349.648 C 91.082 350.413,91.959 351.039,92.225 351.041 C 92.491 351.043,93.321 351.582,94.069 352.239 C 94.817 352.896,95.558 353.433,95.716 353.433 C 95.875 353.433,96.537 353.881,97.187 354.428 C 97.837 354.975,98.603 355.423,98.887 355.423 C 99.172 355.423,99.643 355.710,99.935 356.061 C 100.226 356.413,100.830 356.868,101.277 357.073 C 102.327 357.556,103.409 358.205,104.884 359.238 C 105.536 359.694,106.919 360.471,107.958 360.964 C 108.997 361.457,109.954 362.035,110.086 362.248 C 110.218 362.462,110.712 362.804,111.183 363.009 C 111.654 363.214,112.308 363.546,112.637 363.747 C 112.965 363.948,113.861 364.401,114.627 364.754 C 115.393 365.107,116.289 365.554,116.617 365.749 C 116.945 365.944,117.878 366.391,118.690 366.744 C 119.501 367.096,120.273 367.559,120.405 367.772 C 120.536 367.985,121.149 368.159,121.766 368.159 C 122.383 368.159,123.111 368.428,123.383 368.756 C 123.656 369.085,124.097 369.353,124.364 369.353 C 124.631 369.353,126.087 369.953,127.599 370.686 C 129.111 371.419,131.333 372.333,132.537 372.716 C 133.741 373.100,135.640 373.844,136.756 374.369 C 137.872 374.894,139.071 375.323,139.419 375.323 C 139.768 375.323,140.163 375.502,140.299 375.721 C 140.434 375.940,141.061 376.119,141.692 376.119 C 142.322 376.119,142.940 376.283,143.063 376.483 C 143.187 376.683,144.048 376.961,144.977 377.102 C 145.906 377.243,147.025 377.503,147.463 377.680 C 149.457 378.484,152.317 379.307,153.111 379.305 C 153.590 379.304,154.094 379.483,154.229 379.701 C 154.364 379.920,155.069 380.100,155.796 380.100 C 156.522 380.100,157.760 380.368,158.546 380.697 C 159.331 381.025,160.686 381.294,161.556 381.294 C 162.426 381.294,163.248 381.473,163.383 381.692 C 163.518 381.910,164.436 382.090,165.423 382.090 C 166.409 382.090,167.534 382.259,167.922 382.467 C 168.673 382.869,173.038 383.520,178.905 384.104 C 180.876 384.300,184.010 384.630,185.871 384.836 C 190.401 385.337,211.624 385.335,215.124 384.833 C 216.657 384.613,219.612 384.279,221.692 384.092 C 227.012 383.612,231.701 382.935,232.637 382.511 C 233.075 382.313,234.418 382.047,235.622 381.919 C 239.197 381.541,242.094 380.950,242.534 380.511 C 242.760 380.285,243.466 380.100,244.102 380.100 C 245.375 380.100,249.648 379.068,250.686 378.510 C 251.047 378.316,252.643 377.858,254.232 377.492 C 255.821 377.127,257.220 376.669,257.340 376.474 C 257.461 376.279,258.076 376.119,258.706 376.119 C 259.337 376.119,259.964 375.940,260.100 375.721 C 260.235 375.502,260.648 375.322,261.019 375.321 C 261.389 375.320,262.205 375.051,262.832 374.724 C 263.459 374.397,264.300 374.129,264.701 374.129 C 265.102 374.129,266.273 373.682,267.302 373.134 C 268.331 372.587,269.460 372.137,269.811 372.135 C 270.161 372.132,271.227 371.684,272.180 371.139 C 273.133 370.595,274.205 370.149,274.564 370.149 C 275.415 370.149,291.955 361.896,292.556 361.172 C 292.809 360.866,293.973 360.164,295.142 359.611 C 296.311 359.058,297.380 358.424,297.517 358.202 C 297.654 357.980,298.343 357.558,299.048 357.263 C 299.753 356.969,300.592 356.473,300.911 356.162 C 301.231 355.852,302.734 354.818,304.251 353.866 C 305.769 352.914,307.201 351.982,307.435 351.795 C 307.669 351.608,308.421 351.007,309.106 350.459 C 309.792 349.911,310.708 349.326,311.143 349.159 C 311.579 348.992,312.809 348.093,313.878 347.160 C 318.610 343.032,321.020 341.095,321.425 341.095 C 321.933 341.095,341.891 321.237,341.891 320.732 C 341.891 320.546,343.055 319.059,344.478 317.428 C 345.900 315.796,347.068 314.319,347.072 314.146 C 347.075 313.973,347.515 313.417,348.048 312.912 C 349.014 311.995,352.239 307.480,352.239 307.043 C 352.239 306.916,352.864 306.153,353.628 305.347 C 354.393 304.540,355.020 303.670,355.021 303.414 C 355.023 303.157,355.473 302.415,356.020 301.764 C 356.567 301.114,357.015 300.450,357.015 300.289 C 357.015 300.129,357.731 298.948,358.607 297.665 C 359.483 296.382,360.199 295.232,360.199 295.110 C 360.199 294.987,360.792 293.955,361.517 292.817 C 363.141 290.266,372.139 272.344,372.139 271.659 C 372.139 271.386,372.587 270.321,373.134 269.292 C 373.682 268.263,374.129 266.993,374.129 266.470 C 374.129 265.947,374.289 265.421,374.483 265.301 C 374.678 265.181,374.952 264.588,375.093 263.984 C 375.233 263.380,375.683 262.169,376.091 261.294 C 376.500 260.418,377.130 258.627,377.491 257.313 C 378.679 252.995,379.462 250.553,379.783 250.169 C 379.957 249.961,380.100 249.220,380.100 248.523 C 380.100 247.826,380.367 246.742,380.694 246.115 C 381.021 245.488,381.290 244.404,381.291 243.705 C 381.292 243.007,381.473 242.324,381.692 242.189 C 381.910 242.054,382.090 241.273,382.090 240.454 C 382.090 239.635,382.264 238.791,382.476 238.578 C 382.689 238.366,382.984 236.891,383.132 235.302 C 383.279 233.713,383.553 232.318,383.740 232.203 C 383.927 232.087,384.080 230.875,384.080 229.509 C 384.080 228.143,384.247 226.855,384.451 226.647 C 385.094 225.993,386.070 214.537,386.070 207.649 C 386.070 203.289,386.218 200.950,386.506 200.772 C 386.778 200.604,386.840 199.960,386.670 199.057 C 386.521 198.262,386.262 193.582,386.095 188.657 C 385.790 179.685,385.129 172.437,384.479 170.945 C 384.288 170.507,384.034 169.164,383.914 167.960 C 383.536 164.165,382.994 160.895,382.651 160.340 C 382.469 160.046,382.199 158.998,382.051 158.012 C 381.521 154.487,380.825 151.437,380.465 151.065 C 380.264 150.857,380.100 150.196,380.100 149.596 C 380.100 148.996,379.920 148.394,379.701 148.259 C 379.483 148.123,379.303 147.686,379.303 147.286 C 379.303 146.571,378.331 143.053,377.702 141.493 C 377.525 141.055,377.070 139.711,376.690 138.507 C 376.310 137.303,375.757 135.754,375.462 135.064 C 375.167 134.374,374.925 133.611,374.925 133.367 C 374.925 133.124,374.746 132.569,374.527 132.134 C 374.308 131.699,373.950 130.988,373.731 130.553 C 373.512 130.118,373.332 129.536,373.331 129.259 C 373.329 128.983,372.614 127.323,371.741 125.572 C 370.868 123.821,370.153 121.996,370.152 121.516 C 370.150 121.036,369.975 120.536,369.762 120.405 C 369.549 120.273,369.086 119.501,368.734 118.690 C 368.381 117.878,367.934 116.945,367.739 116.617 C 367.544 116.289,367.097 115.393,366.744 114.627 C 366.391 113.861,365.938 112.965,365.735 112.637 C 365.533 112.308,365.246 111.771,365.096 111.443 C 364.947 111.114,364.262 109.950,363.575 108.856 C 362.888 107.761,361.928 106.029,361.442 105.007 C 360.955 103.985,360.297 102.933,359.980 102.670 C 359.663 102.407,359.403 101.966,359.403 101.692 C 359.403 101.417,359.134 100.969,358.806 100.697 C 358.478 100.424,358.209 99.896,358.209 99.523 C 358.209 99.150,357.761 98.425,357.214 97.910 C 356.667 97.396,356.219 96.766,356.219 96.510 C 356.219 96.253,355.865 95.724,355.433 95.333 C 355.001 94.941,354.529 94.242,354.384 93.778 C 354.240 93.315,353.653 92.376,353.081 91.691 C 350.553 88.671,348.259 85.639,348.259 85.320 C 348.259 85.129,347.363 84.024,346.269 82.864 C 345.174 81.704,344.279 80.651,344.279 80.523 C 344.279 80.395,342.935 78.811,341.294 77.002 C 339.652 75.194,338.308 73.554,338.308 73.359 C 338.308 72.888,325.425 60.100,324.948 60.097 C 324.744 60.096,323.144 58.760,321.393 57.127 C 319.642 55.495,318.064 54.153,317.887 54.144 C 317.710 54.136,316.815 53.428,315.897 52.571 C 314.289 51.069,310.301 48.159,309.850 48.159 C 309.729 48.159,308.998 47.583,308.224 46.879 C 307.450 46.175,306.336 45.372,305.747 45.093 C 305.158 44.815,303.871 43.962,302.886 43.198 C 301.900 42.434,300.557 41.564,299.900 41.264 C 299.244 40.965,298.461 40.424,298.160 40.062 C 297.860 39.699,297.389 39.403,297.114 39.403 C 296.840 39.403,296.392 39.134,296.119 38.806 C 295.847 38.478,295.349 38.209,295.014 38.209 C 294.678 38.209,293.783 37.736,293.026 37.158 C 291.371 35.896,276.273 28.262,275.423 28.258 C 275.095 28.256,273.606 27.629,272.115 26.864 C 270.624 26.099,269.091 25.473,268.709 25.473 C 268.326 25.473,267.665 25.210,267.240 24.888 C 266.815 24.567,266.069 24.298,265.582 24.291 C 265.095 24.284,264.109 23.921,263.393 23.484 C 262.676 23.047,261.821 22.688,261.493 22.686 C 261.164 22.683,260.429 22.438,259.860 22.141 C 259.290 21.844,257.995 21.476,256.983 21.325 C 255.971 21.173,255.039 20.880,254.911 20.674 C 254.784 20.467,254.163 20.299,253.532 20.299 C 252.901 20.299,252.275 20.119,252.139 19.900 C 252.004 19.682,251.566 19.502,251.166 19.502 C 250.326 19.502,246.496 18.406,245.478 17.874 C 245.098 17.675,244.292 17.510,243.687 17.508 C 243.082 17.505,241.602 17.239,240.398 16.915 C 239.194 16.592,237.657 16.326,236.982 16.323 C 236.307 16.321,235.621 16.184,235.459 16.020 C 235.109 15.668,229.827 14.833,225.871 14.504 C 224.338 14.377,222.726 14.124,222.289 13.942 C 219.834 12.923,192.300 12.327,185.672 13.150 M307.750 124.887 L 308.657 125.793 308.776 191.354 C 308.841 227.413,308.786 257.836,308.653 258.960 C 308.190 262.882,313.473 262.461,261.934 262.687 L 216.539 262.886 215.654 263.771 C 214.458 264.967,214.357 268.561,215.485 269.808 C 216.240 270.644,216.334 270.647,240.758 270.649 C 270.377 270.652,268.040 270.350,276.449 275.260 C 285.248 280.398,286.379 281.422,284.896 282.905 C 284.200 283.601,116.596 283.601,115.900 282.905 C 114.431 281.436,115.389 280.566,124.121 275.452 C 132.916 270.300,130.342 270.647,159.827 270.647 C 181.825 270.647,184.690 270.576,185.245 270.022 C 186.588 268.679,186.514 265.559,185.097 263.809 L 184.349 262.886 138.511 262.687 C 86.467 262.461,91.810 262.883,91.347 258.960 C 90.639 252.967,91.336 125.863,92.081 125.039 C 93.172 123.834,87.234 123.894,200.884 123.938 L 306.844 123.980 307.750 124.887 M186.275 173.007 C 184.644 173.174,183.903 173.619,183.887 174.442 C 183.883 174.614,184.666 175.091,185.625 175.502 C 188.775 176.853,188.657 176.152,188.657 193.445 C 188.657 209.653,188.740 210.422,190.457 210.091 C 191.670 209.857,191.759 208.714,191.801 192.825 C 191.845 176.144,191.829 176.256,194.313 175.612 C 199.592 174.244,193.496 172.268,186.275 173.007 M201.658 174.196 C 201.122 174.732,201.436 177.223,203.414 188.094 C 204.525 194.204,205.758 201.405,206.152 204.095 C 207.493 213.232,210.276 213.140,211.551 203.916 C 211.879 201.543,212.770 196.199,213.532 192.040 C 216.597 175.297,216.734 173.930,215.338 173.930 C 214.970 173.930,213.731 175.038,213.731 175.367 C 213.731 180.268,209.835 198.034,208.832 197.707 C 207.636 197.318,207.370 196.175,204.997 181.193 C 203.941 174.532,203.096 172.759,201.658 174.196 " stroke="none" fill="#242424" fill-rule="evenodd"></path></g></svg>