<?xml version="1.0" standalone="no"?>
<!DOCTYPE svg PUBLIC "-//W3C//DTD SVG 20010904//EN"
 "http://www.w3.org/TR/2001/REC-SVG-20010904/DTD/svg10.dtd">
<svg version="1.0" xmlns="http://www.w3.org/2000/svg"
 width="549.000000pt" height="546.000000pt" viewBox="0 0 549.000000 546.000000"
 preserveAspectRatio="xMidYMid meet">

<g transform="translate(0.000000,546.000000) scale(0.100000,-0.100000)"
fill="#000000" stroke="none">
<path d="M2523 5220 c-1105 -108 -2006 -917 -2222 -1995 -37 -184 -45 -278
-45 -495 0 -217 8 -311 45 -495 196 -980 974 -1758 1954 -1954 184 -37 278
-45 495 -45 217 0 311 8 495 45 736 147 1375 629 1723 1299 373 717 373 1583
0 2300 -340 656 -957 1130 -1678 1290 -220 49 -555 70 -767 50z m512 -1165
c50 -13 95 -32 102 -42 7 -9 13 -42 13 -73 0 -31 6 -64 13 -73 6 -9 66 -33
132 -52 133 -40 398 -157 432 -191 25 -25 24 -15 58 -474 82 -1108 115 -1560
115 -1565 0 -3 -88 -5 -195 -5 l-195 0 0 98 c-1 339 -67 991 -105 1031 -30 31
-35 1 -35 -198 0 -243 5 -234 -128 -261 -100 -20 -122 -31 -122 -62 0 -28 22
-31 108 -14 144 29 145 29 140 -156 -3 -127 -4 -130 -30 -153 -58 -50 -323
-137 -463 -151 -51 -5 -63 -3 -75 11 -21 26 -28 2140 -7 2169 9 13 40 23 98
33 46 8 88 19 94 24 39 38 -175 70 -347 51 -117 -13 -138 -18 -138 -37 0 -20
10 -24 97 -37 43 -6 86 -18 96 -26 16 -14 17 -79 17 -1093 l0 -1078 -21 -11
c-42 -23 -283 32 -442 100 -50 22 -98 46 -106 55 -13 13 -16 42 -16 155 0 98
4 143 12 151 10 10 29 10 90 -1 105 -18 124 -18 137 2 18 29 -11 46 -114 69
-52 11 -102 27 -110 35 -12 12 -16 54 -18 219 -3 192 -4 205 -22 205 -22 0
-32 -40 -60 -240 -28 -203 -40 -349 -50 -630 -5 -140 -9 -256 -10 -257 0 -2
-86 -3 -192 -3 l-191 0 7 98 c3 53 19 270 35 482 16 212 44 610 61 885 18 275
37 518 44 540 10 37 18 44 101 87 112 59 268 121 375 150 107 28 130 50 130
121 0 29 6 61 13 70 6 10 46 28 87 41 69 22 93 24 285 25 194 1 217 -1 300
-24z"/>
</g>
</svg>
