<?xml version="1.0" standalone="no"?>
<!DOCTYPE svg PUBLIC "-//W3C//DTD SVG 20010904//EN"
 "http://www.w3.org/TR/2001/REC-SVG-20010904/DTD/svg10.dtd">
<svg version="1.0" xmlns="http://www.w3.org/2000/svg"
 width="549.000000pt" height="546.000000pt" viewBox="0 0 549.000000 546.000000"
 preserveAspectRatio="xMidYMid meet">

<g transform="translate(0.000000,546.000000) scale(0.100000,-0.100000)"
fill="#000000" stroke="none">
<path d="M2523 5220 c-1105 -108 -2006 -917 -2222 -1995 -37 -184 -45 -278
-45 -495 0 -217 8 -311 45 -495 196 -980 974 -1758 1954 -1954 184 -37 278
-45 495 -45 217 0 311 8 495 45 736 147 1375 629 1723 1299 373 717 373 1583
0 2300 -340 656 -957 1130 -1678 1290 -220 49 -555 70 -767 50z m306 -1007
c297 -147 1011 -1337 1206 -2008 79 -270 71 -358 -38 -429 -102 -68 -326 -124
-647 -163 -130 -15 -229 -18 -605 -18 -404 1 -468 3 -625 23 -414 52 -640 132
-681 240 -14 36 -11 145 7 230 85 424 551 1334 938 1831 149 192 298 321 371
321 12 0 45 -12 74 -27z"/>
<path d="M2689 3681 c-140 -91 -383 -448 -589 -866 -173 -351 -240 -578 -198
-670 45 -98 389 -165 851 -165 419 0 755 56 839 141 25 24 28 35 28 91 0 280
-466 1171 -746 1427 -88 80 -116 87 -185 42z m146 -514 c129 -137 309 -469
353 -650 19 -81 14 -93 -49 -124 -139 -69 -628 -69 -769 0 -43 21 -45 24 -48
72 -4 57 20 135 83 270 83 178 238 416 303 465 45 33 71 26 127 -33z"/>
</g>
</svg>
