<?xml version="1.0" standalone="no"?>
<!DOCTYPE svg PUBLIC "-//W3C//DTD SVG 20010904//EN"
 "http://www.w3.org/TR/2001/REC-SVG-20010904/DTD/svg10.dtd">
<svg version="1.0" xmlns="http://www.w3.org/2000/svg"
 width="549.000000pt" height="546.000000pt" viewBox="0 0 549.000000 546.000000"
 preserveAspectRatio="xMidYMid meet">

<g transform="translate(0.000000,546.000000) scale(0.100000,-0.100000)"
fill="#000000" stroke="none">
<path d="M2523 5220 c-1105 -108 -2006 -917 -2222 -1995 -37 -184 -45 -278
-45 -495 0 -217 8 -311 45 -495 196 -980 974 -1758 1954 -1954 184 -37 278
-45 495 -45 217 0 311 8 495 45 736 147 1375 629 1723 1299 373 717 373 1583
0 2300 -340 656 -957 1130 -1678 1290 -220 49 -555 70 -767 50z m887 -1489
c-103 -108 -207 -214 -229 -236 l-41 -39 62 -63 c34 -35 67 -63 72 -63 5 0
111 104 234 231 l225 230 69 -68 68 -68 -232 -232 -233 -233 68 -67 67 -68
233 233 232 232 68 -68 67 -67 -328 -327 c-367 -367 -382 -378 -502 -378 -74
0 -131 22 -195 75 l-42 34 -91 -92 c-51 -51 -92 -97 -92 -102 0 -6 221 -230
490 -500 l490 -490 -100 -100 -100 -100 -495 495 -495 495 -495 -495 -495
-495 -102 103 -103 102 692 693 693 692 -35 40 c-70 81 -91 184 -58 286 16 50
42 79 352 395 l336 340 67 -65 67 -64 -189 -196z m-1172 -486 c155 -154 282
-284 282 -290 0 -6 -90 -100 -200 -210 l-200 -200 -334 335 c-316 318 -335
339 -374 417 -100 202 -77 430 61 611 l40 53 221 -218 c122 -120 348 -344 504
-498z"/>
</g>
</svg>
