<?xml version="1.0" standalone="no"?>
<!DOCTYPE svg PUBLIC "-//W3C//DTD SVG 20010904//EN"
 "http://www.w3.org/TR/2001/REC-SVG-20010904/DTD/svg10.dtd">
<svg version="1.0" xmlns="http://www.w3.org/2000/svg"
 width="549.000000pt" height="546.000000pt" viewBox="0 0 549.000000 546.000000"
 preserveAspectRatio="xMidYMid meet">

<g transform="translate(0.000000,546.000000) scale(0.100000,-0.100000)"
fill="#000000" stroke="none">
<path d="M2523 5220 c-1105 -108 -2006 -917 -2222 -1995 -37 -184 -45 -278
-45 -495 0 -217 8 -311 45 -495 196 -980 974 -1758 1954 -1954 184 -37 278
-45 495 -45 217 0 311 8 495 45 736 147 1375 629 1723 1299 373 717 373 1583
0 2300 -340 656 -957 1130 -1678 1290 -220 49 -555 70 -767 50z m518 -1233
c552 -317 835 -480 892 -514 l57 -35 -2 -710 -3 -711 -620 -358 c-514 -296
-623 -355 -639 -347 -10 6 -129 74 -265 152 -135 79 -343 198 -461 266 -118
68 -279 161 -357 207 l-143 84 0 709 0 709 83 48 c112 66 261 152 737 428 223
128 412 234 421 234 8 1 143 -72 300 -162z"/>
<path d="M2648 3952 c-66 -40 -78 -51 -78 -74 0 -34 -6 -38 -114 -65 -115 -29
-290 -114 -393 -192 -216 -162 -366 -405 -424 -686 -22 -106 -15 -402 10 -444
7 -10 17 -7 50 14 22 15 41 30 41 34 0 3 -5 48 -10 99 -24 223 40 469 170 663
126 187 350 347 570 408 92 26 89 26 99 -2 5 -13 42 -41 95 -70 l86 -49 90 52
91 52 -3 106 -3 107 -80 47 c-44 27 -89 48 -100 47 -11 0 -55 -22 -97 -47z
m150 -59 c26 -15 50 -32 55 -38 4 -5 6 -34 5 -64 -3 -53 -4 -55 -51 -84 -53
-32 -73 -31 -128 6 -32 21 -34 27 -37 84 l-3 62 53 30 c29 17 54 31 56 31 2 0
24 -12 50 -27z"/>
<path d="M3070 3751 l0 -49 104 -51 c297 -145 497 -395 567 -710 32 -149 23
-370 -22 -508 -8 -25 -16 -32 -33 -31 -21 2 -143 -60 -178 -90 -15 -12 -18
-32 -18 -112 0 -111 -5 -104 109 -168 l73 -42 89 51 89 51 0 106 c0 101 -1
107 -25 127 -25 20 -25 20 -10 70 70 226 69 460 -5 685 -95 292 -310 533 -593
665 -50 23 -104 46 -119 49 -28 6 -28 6 -28 -43z m663 -1462 l48 -30 -3 -61
-3 -61 -49 -31 -50 -30 -55 30 -56 31 -3 61 -3 61 53 30 c29 17 58 31 63 31 6
0 32 -14 58 -31z"/>
<path d="M2695 3424 c-22 -14 -159 -93 -305 -177 l-265 -153 -3 -361 c-2 -281
1 -363 10 -370 7 -6 148 -88 313 -183 222 -127 304 -169 315 -162 8 5 123 71
255 147 132 75 266 153 298 172 l57 34 0 359 0 359 -92 54 c-343 199 -532 307
-537 306 -3 0 -24 -12 -46 -25z m238 -433 l127 -74 0 -188 0 -188 -159 -91
-159 -91 -159 93 -158 93 0 185 0 185 160 92 160 92 30 -18 c16 -9 87 -50 158
-90z"/>
<path d="M1745 2364 c-44 -25 -85 -50 -93 -56 -9 -8 -12 -38 -10 -112 l3 -101
89 -54 c74 -44 93 -52 108 -42 28 17 34 15 90 -45 164 -174 418 -303 663 -336
122 -16 320 -4 435 27 112 30 253 96 348 160 75 51 138 103 131 108 -16 13
-78 47 -85 47 -5 0 -41 -23 -79 -51 -403 -296 -978 -249 -1328 108 -47 49 -48
49 -27 68 17 16 20 30 20 116 0 111 7 102 -120 172 l-66 36 -79 -45z m136 -71
l49 -28 0 -65 0 -66 -53 -28 -53 -29 -52 29 -52 29 0 65 0 65 48 27 c26 15 51
28 56 28 4 0 30 -12 57 -27z"/>
</g>
</svg>
