<?xml version="1.0" standalone="no"?>
<!DOCTYPE svg PUBLIC "-//W3C//DTD SVG 20010904//EN"
 "http://www.w3.org/TR/2001/REC-SVG-20010904/DTD/svg10.dtd">
<svg version="1.0" xmlns="http://www.w3.org/2000/svg"
 width="549.000000pt" height="546.000000pt" viewBox="0 0 549.000000 546.000000"
 preserveAspectRatio="xMidYMid meet">

<g transform="translate(0.000000,546.000000) scale(0.100000,-0.100000)"
fill="#000000" stroke="none">
<path d="M2523 5220 c-1105 -108 -2006 -917 -2222 -1995 -37 -184 -45 -278
-45 -495 0 -217 8 -311 45 -495 196 -980 974 -1758 1954 -1954 184 -37 278
-45 495 -45 217 0 311 8 495 45 736 147 1375 629 1723 1299 373 717 373 1583
0 2300 -340 656 -957 1130 -1678 1290 -220 49 -555 70 -767 50z m542 -1326
c88 -63 176 -126 195 -139 19 -13 123 -87 230 -165 107 -77 259 -186 338 -242
162 -116 150 -92 128 -263 -8 -61 -20 -159 -26 -220 -6 -60 -18 -162 -25 -225
-14 -112 -29 -244 -40 -345 -6 -55 -23 -199 -33 -284 l-7 -55 -260 -108 c-854
-358 -959 -399 -980 -388 -11 5 -85 58 -165 115 -80 58 -185 135 -235 170 -49
36 -129 93 -177 127 -48 35 -175 126 -282 203 l-196 140 0 42 c0 23 6 89 14
145 8 57 20 153 26 213 6 61 17 162 25 225 20 163 34 286 40 350 3 30 9 89 15
130 5 41 12 100 15 131 l6 56 62 25 c34 14 208 86 387 161 179 75 422 176 540
226 118 49 222 90 230 90 8 1 87 -51 175 -115z"/>
<path d="M2870 3428 c-6 -29 -15 -97 -20 -151 -5 -54 -12 -101 -14 -105 -2 -4
-9 -52 -16 -107 -6 -55 -18 -147 -26 -205 -9 -58 -20 -134 -24 -170 -22 -168
-32 -238 -40 -275 -17 -74 -17 -75 49 -75 66 0 65 -2 77 82 l6 48 53 -54 c72
-73 134 -96 259 -96 145 0 236 39 344 147 36 37 67 82 90 132 35 73 36 80 37
191 0 106 -2 120 -29 178 -40 87 -125 163 -213 193 -135 45 -270 24 -403 -62
l-62 -40 6 27 c9 34 36 244 43 332 l5 62 -55 0 -55 0 -12 -52z m514 -382 c60
-30 105 -79 131 -144 25 -62 17 -200 -15 -267 -33 -68 -112 -145 -185 -179
-118 -56 -282 -33 -355 51 -59 66 -74 110 -74 203 1 72 6 95 31 150 85 185
297 269 467 186z"/>
<path d="M2223 3176 c-151 -37 -278 -146 -343 -296 -21 -47 -24 -71 -24 -170
-1 -126 10 -166 64 -245 67 -98 171 -146 314 -146 115 0 185 22 265 82 51 38
67 47 57 30 -5 -8 -32 -215 -43 -333 l-5 -58 55 0 c66 0 61 -9 81 160 8 69 17
132 20 140 6 16 19 113 36 260 5 47 14 117 20 155 36 243 50 352 50 382 l0 34
-57 -3 -58 -3 -10 -68 -10 -68 -36 43 c-78 94 -236 138 -376 104z m195 -113
c77 -25 155 -97 177 -164 55 -163 -31 -367 -182 -439 -129 -61 -276 -46 -366
39 -54 49 -78 113 -78 205 -1 135 56 241 167 312 97 62 187 77 282 47z"/>
</g>
</svg>
