<?xml version="1.0" standalone="no"?>
<!DOCTYPE svg PUBLIC "-//W3C//DTD SVG 20010904//EN"
 "http://www.w3.org/TR/2001/REC-SVG-20010904/DTD/svg10.dtd">
<svg version="1.0" xmlns="http://www.w3.org/2000/svg"
 width="549.000000pt" height="546.000000pt" viewBox="0 0 549.000000 546.000000"
 preserveAspectRatio="xMidYMid meet">

<g transform="translate(0.000000,546.000000) scale(0.100000,-0.100000)"
fill="#000000" stroke="none">
<path d="M2523 5220 c-1105 -108 -2006 -917 -2222 -1995 -37 -184 -45 -278
-45 -495 0 -217 8 -311 45 -495 196 -980 974 -1758 1954 -1954 184 -37 278
-45 495 -45 217 0 311 8 495 45 736 147 1375 629 1723 1299 373 717 373 1583
0 2300 -340 656 -957 1130 -1678 1290 -220 49 -555 70 -767 50z m-725 -1157
l3 -33 65 0 64 0 0 35 0 35 820 0 820 0 0 -35 0 -35 70 0 70 0 0 35 0 35 70 0
70 0 0 -1370 0 -1370 -70 0 -69 0 -3 68 -3 67 -67 3 -68 3 0 -71 0 -70 -820 0
-820 0 0 70 0 70 -65 0 -64 0 -3 -67 -3 -68 -67 -3 -68 -3 0 1371 0 1371 68
-3 67 -3 3 -32z"/>
<path d="M1800 3790 l0 -100 65 0 65 0 0 100 0 100 -65 0 -65 0 0 -100z"/>
<path d="M3570 3790 l0 -100 70 0 70 0 0 100 0 100 -70 0 -70 0 0 -100z"/>
<path d="M1800 3450 l0 -100 65 0 65 0 0 100 0 100 -65 0 -65 0 0 -100z"/>
<path d="M3570 3450 l0 -100 70 0 70 0 0 100 0 100 -70 0 -70 0 0 -100z"/>
<path d="M1800 3110 l0 -100 65 0 65 0 0 100 0 100 -65 0 -65 0 0 -100z"/>
<path d="M3570 3110 l0 -100 70 0 71 0 -3 98 -3 97 -67 3 -68 3 0 -101z"/>
<path d="M2330 2820 c0 -161 2 -190 15 -190 12 0 15 23 17 128 l3 127 30 -110
29 -110 14 50 c8 28 22 77 32 110 l18 60 1 -127 c1 -107 3 -128 16 -128 13 0
15 28 15 190 0 160 -2 190 -15 190 -13 0 -19 -14 -46 -122 -24 -98 -31 -120
-35 -115 -3 3 -15 41 -25 84 -11 43 -25 95 -30 116 -6 21 -16 37 -24 37 -13 0
-15 -30 -15 -190z"/>
<path d="M2940 2945 c0 -16 6 -25 15 -25 9 0 15 9 15 25 0 16 -6 25 -15 25 -9
0 -15 -9 -15 -25z"/>
<path d="M1800 2765 l0 -105 65 0 66 0 -3 103 -3 102 -62 3 -63 3 0 -106z"/>
<path d="M2585 2857 c-3 -7 -4 -60 -3 -118 l3 -104 60 0 60 0 0 115 0 115 -58
3 c-41 2 -59 -1 -62 -11z m95 -107 l0 -90 -35 0 -35 0 0 90 0 90 35 0 35 0 0
-90z"/>
<path d="M2760 2863 c0 -4 12 -59 27 -120 27 -114 46 -141 59 -85 3 15 16 69
29 120 18 74 20 92 9 92 -7 0 -16 -12 -20 -27 -39 -174 -35 -169 -58 -69 -12
49 -27 91 -34 94 -6 2 -12 0 -12 -5z"/>
<path d="M2940 2750 c0 -100 3 -120 15 -120 13 0 15 20 15 120 0 100 -2 120
-15 120 -12 0 -15 -20 -15 -120z"/>
<path d="M3034 2857 c-2 -7 -3 -60 -2 -118 l3 -104 48 -3 c27 -2 55 2 63 9 19
16 18 59 -1 59 -8 0 -15 -9 -15 -20 0 -16 -7 -20 -35 -20 -34 0 -35 1 -35 39
l0 40 48 3 c47 3 47 3 50 42 2 22 1 50 -2 63 -6 21 -12 23 -62 23 -36 0 -56
-4 -60 -13z m96 -52 c0 -33 -2 -35 -35 -35 -33 0 -35 2 -35 35 0 33 2 35 35
35 33 0 35 -2 35 -35z"/>
<path d="M3577 2864 c-4 -4 -7 -52 -7 -106 l0 -99 68 3 67 3 0 100 0 100 -60
3 c-34 2 -64 0 -68 -4z"/>
<path d="M1800 2420 l0 -100 65 0 65 0 0 100 0 100 -65 0 -65 0 0 -100z"/>
<path d="M3570 2420 l0 -101 68 3 67 3 3 98 3 97 -71 0 -70 0 0 -100z"/>
<path d="M1800 2080 l0 -100 65 0 65 0 0 100 0 100 -65 0 -65 0 0 -100z"/>
<path d="M3570 2080 l0 -100 70 0 70 0 0 100 0 100 -70 0 -70 0 0 -100z"/>
<path d="M1800 1740 l0 -100 65 0 65 0 0 100 0 100 -65 0 -65 0 0 -100z"/>
<path d="M3570 1740 l0 -100 70 0 70 0 0 100 0 100 -70 0 -70 0 0 -100z"/>
</g>
</svg>
