<?xml version="1.0" standalone="no"?>
<!DOCTYPE svg PUBLIC "-//W3C//DTD SVG 20010904//EN"
 "http://www.w3.org/TR/2001/REC-SVG-20010904/DTD/svg10.dtd">
<svg version="1.0" xmlns="http://www.w3.org/2000/svg"
 width="549.000000pt" height="546.000000pt" viewBox="0 0 549.000000 546.000000"
 preserveAspectRatio="xMidYMid meet">

<g transform="translate(0.000000,546.000000) scale(0.100000,-0.100000)"
fill="#000000" stroke="none">
<path d="M2523 5220 c-1105 -108 -2006 -917 -2222 -1995 -37 -184 -45 -278
-45 -495 0 -217 8 -311 45 -495 196 -980 974 -1758 1954 -1954 184 -37 278
-45 495 -45 217 0 311 8 495 45 736 147 1375 629 1723 1299 373 717 373 1583
0 2300 -340 656 -957 1130 -1678 1290 -220 49 -555 70 -767 50z m691 -1351
c-4 -6 -11 -6 -20 2 -8 6 -16 10 -18 8 -4 -6 -56 -138 -56 -144 0 -9 22 -5 93
16 51 15 67 23 58 32 -15 15 -14 27 3 27 13 0 56 -49 56 -64 0 -3 -10 -5 -22
-4 -13 1 -75 -13 -138 -31 -152 -42 -146 -39 -132 -53 16 -16 15 -28 -2 -28
-14 0 -96 88 -96 103 0 17 31 5 45 -17 15 -23 19 -24 56 -13 39 12 41 15 78
109 21 53 36 99 34 102 -3 3 -2 10 3 17 5 9 16 3 36 -20 16 -18 26 -36 22 -42z
m-1216 11 c1040 -111 1842 -949 1899 -1983 l6 -117 -204 2 -204 3 -7 115 c-19
331 -144 657 -356 929 -293 376 -758 624 -1217 649 l-120 7 -3 203 -2 202 55
0 c31 0 99 -5 153 -10z m1432 -228 c31 -31 40 -46 40 -73 0 -29 -8 -42 -57
-85 -48 -43 -55 -54 -45 -66 6 -8 9 -18 5 -22 -9 -8 -54 34 -47 45 2 5 -13 17
-35 29 -45 22 -61 45 -61 86 0 54 50 79 103 53 12 -6 37 -27 55 -47 31 -36 33
-36 47 -18 22 29 19 35 -30 82 -25 23 -45 44 -45 48 0 17 34 2 70 -32z m185
-242 c-14 -16 -13 -18 23 -24 45 -7 75 -35 70 -66 -4 -27 -22 -27 -26 0 -4 24
-23 35 -76 44 -35 7 -42 4 -77 -30 l-38 -37 29 -34 c30 -34 38 -53 21 -53 -15
0 -131 132 -125 142 3 5 17 0 29 -12 l24 -22 60 52 c56 50 59 54 45 75 -22 33
-4 39 28 8 25 -24 26 -28 13 -43z m192 -182 c21 -19 22 -23 8 -38 -15 -16 -12
-18 29 -29 47 -11 66 -33 66 -71 0 -26 -24 -22 -28 6 -6 28 -13 33 -65 43 -44
8 -48 7 -87 -26 l-40 -35 30 -38 c33 -41 37 -53 17 -48 -22 5 -132 131 -118
136 7 2 21 -4 32 -14 21 -19 17 -22 106 60 30 27 31 30 16 52 -20 32 1 33 34
2z m-1742 -83 c179 -37 363 -115 514 -218 98 -66 292 -260 358 -358 144 -211
243 -505 243 -721 l0 -68 -199 0 -199 0 -7 68 c-23 250 -127 474 -297 638
-166 160 -356 250 -580 275 l-108 12 0 200 0 200 98 -6 c53 -3 133 -13 177
-22z m2059 -120 c9 -23 -144 -149 -161 -132 -8 9 126 147 143 147 7 0 14 -7
18 -15z m-199 -185 c7 -23 -1 -40 -19 -40 -20 0 -39 27 -32 45 8 22 44 18 51
-5z m-1740 -524 c62 -28 126 -97 150 -159 21 -57 17 -165 -9 -214 -64 -124
-201 -186 -329 -149 -225 66 -278 349 -92 492 77 59 193 71 280 30z"/>
<path d="M3260 3585 c-17 -21 -3 -54 33 -76 38 -23 70 -24 87 -4 9 11 8 20
-10 45 -35 49 -85 65 -110 35z"/>
</g>
</svg>
