<?xml version="1.0" standalone="no"?>
<!DOCTYPE svg PUBLIC "-//W3C//DTD SVG 20010904//EN"
 "http://www.w3.org/TR/2001/REC-SVG-20010904/DTD/svg10.dtd">
<svg version="1.0" xmlns="http://www.w3.org/2000/svg"
 width="549.000000pt" height="546.000000pt" viewBox="0 0 549.000000 546.000000"
 preserveAspectRatio="xMidYMid meet">

<g transform="translate(0.000000,546.000000) scale(0.100000,-0.100000)"
fill="#000000" stroke="none">
<path d="M2522 5219 c-840 -75 -1599 -586 -1990 -1339 -536 -1031 -283 -2312
603 -3057 1083 -910 2693 -751 3571 353 612 769 715 1832 262 2704 -467 900
-1433 1429 -2446 1339z m-521 -1340 c1030 -105 1839 -951 1896 -1982 l6 -117
-204 2 -204 3 -7 115 c-19 330 -145 658 -356 929 -292 375 -753 622 -1214 649
l-123 7 -3 203 -2 202 54 0 c30 0 100 -5 157 -11z m64 -734 c178 -37 358 -113
512 -216 100 -67 295 -262 362 -362 144 -215 241 -503 241 -719 l0 -68 -199 0
-200 0 -5 58 c-10 104 -37 225 -66 302 -110 282 -373 518 -666 595 -33 9 -103
20 -156 27 l-98 11 0 200 0 200 98 -6 c53 -3 133 -13 177 -22z m120 -829 c65
-30 112 -78 143 -145 21 -45 24 -64 20 -125 -3 -39 -12 -86 -22 -103 -64 -124
-201 -186 -329 -149 -225 66 -278 349 -92 492 77 59 192 71 280 30z"/>
</g>
</svg>
