<?xml version="1.0" standalone="no"?>
<!DOCTYPE svg PUBLIC "-//W3C//DTD SVG 20010904//EN"
 "http://www.w3.org/TR/2001/REC-SVG-20010904/DTD/svg10.dtd">
<svg version="1.0" xmlns="http://www.w3.org/2000/svg"
 width="549.000000pt" height="546.000000pt" viewBox="0 0 549.000000 546.000000"
 preserveAspectRatio="xMidYMid meet">

<g transform="translate(0.000000,546.000000) scale(0.100000,-0.100000)"
fill="#000000" stroke="none">
<path d="M2523 5220 c-1105 -108 -2006 -917 -2222 -1995 -37 -184 -45 -278
-45 -495 0 -217 8 -311 45 -495 196 -980 974 -1758 1954 -1954 184 -37 278
-45 495 -45 217 0 311 8 495 45 736 147 1375 629 1723 1299 373 717 373 1583
0 2300 -340 656 -957 1130 -1678 1290 -220 49 -555 70 -767 50z m1715 -2410
l-3 -950 -640 -3 -640 -2 0 -53 0 -52 370 -3 370 -2 115 -69 c116 -70 133 -83
124 -98 -3 -4 -536 -8 -1185 -8 -1101 0 -1180 1 -1177 17 2 9 55 48 118 87
l115 71 374 2 c206 2 376 5 379 7 2 3 0 27 -4 53 l-9 48 -645 2 -645 3 -3 950
-2 950 1495 0 1495 0 -2 -950z"/>
<path d="M2500 3070 c0 -17 7 -20 45 -20 l45 0 0 -245 c0 -238 1 -245 20 -245
19 0 20 7 20 245 l0 245 40 0 c33 0 40 3 40 20 0 19 -7 20 -105 20 -98 0 -105
-1 -105 -20z"/>
<path d="M2799 2828 c42 -241 48 -263 67 -266 19 -3 23 12 63 245 24 136 45
256 48 266 3 12 -1 17 -16 17 -25 0 -22 9 -61 -234 -17 -105 -32 -191 -33
-193 -2 -1 -9 32 -15 75 -55 359 -54 352 -77 352 -21 0 -21 -2 24 -262z"/>
</g>
</svg>
