<?xml version="1.0" standalone="no"?>
<!DOCTYPE svg PUBLIC "-//W3C//DTD SVG 20010904//EN"
 "http://www.w3.org/TR/2001/REC-SVG-20010904/DTD/svg10.dtd">
<svg version="1.0" xmlns="http://www.w3.org/2000/svg"
 width="549.000000pt" height="546.000000pt" viewBox="0 0 549.000000 546.000000"
 preserveAspectRatio="xMidYMid meet">

<g transform="translate(0.000000,546.000000) scale(0.100000,-0.100000)"
fill="#000000" stroke="none">
<path d="M2523 5220 c-126 -12 -257 -36 -393 -70 -767 -193 -1411 -760 -1704
-1500 -120 -304 -170 -577 -170 -920 0 -343 50 -616 170 -920 309 -782 1006
-1364 1829 -1529 184 -37 278 -45 495 -45 217 0 311 8 495 45 823 165 1520
747 1829 1529 120 305 170 577 170 920 0 346 -50 615 -170 920 -303 767 -977
1341 -1784 1520 -220 49 -555 70 -767 50z m541 -839 c271 -55 527 -176 741
-351 73 -59 190 -178 238 -241 26 -35 30 -37 101 -41 170 -11 292 -128 304
-290 6 -86 -10 -143 -60 -214 l-39 -56 21 -95 c61 -283 41 -606 -56 -884 -57
-164 -159 -353 -251 -467 -33 -40 -34 -44 -22 -79 6 -21 12 -67 12 -103 0
-120 -64 -223 -175 -282 -36 -19 -58 -23 -138 -23 -79 0 -103 4 -142 23 l-46
23 -79 -39 c-506 -252 -1127 -221 -1613 81 -237 147 -450 375 -589 629 -42 77
-42 77 -95 88 -70 14 -152 65 -193 118 -98 129 -76 329 47 433 l48 40 5 157
c7 239 53 435 152 647 222 477 668 825 1185 924 154 30 150 29 350 26 142 -2
210 -8 294 -24z"/>
<path d="M2545 4193 c-328 -52 -603 -190 -830 -418 -200 -200 -325 -421 -391
-690 -23 -97 -52 -361 -41 -387 2 -8 30 -22 62 -32 43 -13 70 -31 109 -70 28
-29 58 -62 66 -74 l15 -21 475 44 c261 24 533 50 604 57 l129 13 33 65 c38 75
77 112 153 148 70 32 172 35 246 5 l50 -19 300 249 300 249 -3 92 c-4 97 9
151 48 207 l21 29 -20 28 c-40 57 -230 230 -313 285 -158 105 -336 182 -518
222 -74 17 -425 30 -495 18z"/>
<path d="M3665 2909 l-299 -250 -1 -107 c0 -92 -3 -114 -24 -155 l-23 -48 26
-37 c14 -20 88 -127 164 -237 l140 -200 58 3 c53 3 94 -3 160 -23 19 -6 31 7
88 92 112 169 185 348 222 548 34 182 18 557 -27 611 -6 8 -28 14 -48 14 -31
1 -54 7 -121 33 -10 4 -118 -80 -315 -244z"/>
<path d="M2445 2380 c-542 -52 -850 -80 -872 -80 -17 0 -28 -13 -48 -57 -14
-32 -42 -74 -60 -93 l-35 -36 45 -78 c210 -369 556 -619 985 -712 122 -27 438
-27 565 0 105 22 266 76 344 115 l55 28 1 89 c1 75 5 98 27 143 l27 55 -167
239 -166 238 -47 -6 c-110 -15 -238 41 -299 132 -19 29 -42 52 -50 51 -8 0
-145 -13 -305 -28z"/>
</g>
</svg>
